<?xml version="1.0" standalone="no"?>
<svg xmlns:xlink="http://www.w3.org/1999/xlink" id="wave" style="transform:rotate(0deg); transition: 0.3s" viewBox="0 0 1440 490" version="1.1" xmlns="http://www.w3.org/2000/svg"><defs><linearGradient id="sw-gradient-0" x1="0" x2="0" y1="1" y2="0"><stop stop-color="rgba(193, 219, 227, 1)" offset="0%"/><stop stop-color="rgba(193, 219, 227, 1)" offset="100%"/></linearGradient></defs><path style="transform:translate(0, 0px); opacity:1" fill="url(#sw-gradient-0)" d="M0,392L40,359.3C80,327,160,261,240,253.2C320,245,400,294,480,334.8C560,376,640,408,720,408.3C800,408,880,376,960,318.5C1040,261,1120,180,1200,187.8C1280,196,1360,294,1440,334.8C1520,376,1600,359,1680,359.3C1760,359,1840,376,1920,375.7C2000,376,2080,359,2160,318.5C2240,278,2320,212,2400,204.2C2480,196,2560,245,2640,277.7C2720,310,2800,327,2880,318.5C2960,310,3040,278,3120,294C3200,310,3280,376,3360,383.8C3440,392,3520,343,3600,269.5C3680,196,3760,98,3840,106.2C3920,114,4000,229,4080,294C4160,359,4240,376,4320,392C4400,408,4480,425,4560,416.5C4640,408,4720,376,4800,367.5C4880,359,4960,376,5040,359.3C5120,343,5200,294,5280,261.3C5360,229,5440,212,5520,245C5600,278,5680,359,5720,400.2L5760,441L5760,490L5720,490C5680,490,5600,490,5520,490C5440,490,5360,490,5280,490C5200,490,5120,490,5040,490C4960,490,4880,490,4800,490C4720,490,4640,490,4560,490C4480,490,4400,490,4320,490C4240,490,4160,490,4080,490C4000,490,3920,490,3840,490C3760,490,3680,490,3600,490C3520,490,3440,490,3360,490C3280,490,3200,490,3120,490C3040,490,2960,490,2880,490C2800,490,2720,490,2640,490C2560,490,2480,490,2400,490C2320,490,2240,490,2160,490C2080,490,2000,490,1920,490C1840,490,1760,490,1680,490C1600,490,1520,490,1440,490C1360,490,1280,490,1200,490C1120,490,1040,490,960,490C880,490,800,490,720,490C640,490,560,490,480,490C400,490,320,490,240,490C160,490,80,490,40,490L0,490Z"/></svg>